<?xml version="1.0" standalone="yes"?>
<svg width="3264" height="1393">
<path style="fill:#000000; stroke:none;" d="M0 0L0 668L1 668C7.59298 655.846 25.6925 656.122 31.6065 669.089C35.2404 677.058 33.3143 687.562 33.1011 695.985C32.8676 705.21 35.144 715.082 31.5988 723.961C26.3729 737.049 5.61966 737.632 1 724L0 724L0 1393L3264 1393L3264 734C3260.79 735.915 3257.61 738.139 3254 739.245C3227.85 747.263 3233.09 709.169 3232.74 696C3232.33 680.503 3228.15 649.18 3254 654.343C3257.64 655.071 3260.72 657.394 3264 659L3264 0L1050 0L1050 1C1068.4 9.61096 1061 49.2314 1061 66L1061 262L1061 1090L1061 1321C1061 1338.86 1063.19 1358.34 1060.57 1376C1059.53 1382.98 1055.99 1391.25 1048 1391.94C1042.53 1392.42 1034.67 1393.09 1030.19 1389.43C1023.85 1384.25 1024 1376.41 1024 1369L1024 1324L1024 1094L1024 265L1024 67L1024 25C1024 15.2693 1024.44 6.18726 1034 1L1007 0L946 0L734 0L0 0z"/>
<path style="fill:#ffffff; stroke:none;" d="M1034.01 0.652832C1026.17 3.17456 1024.04 11.7568 1024 19C1023.91 36.999 1024 55.0007 1024 73L1024 300L1024 1139L1024 1336C1024 1357.62 1015.86 1400.61 1051 1391.68C1058.01 1389.9 1060.22 1381.25 1060.83 1375C1062.58 1357 1061 1338.09 1061 1320L1061 1090L1061 252L1061 54C1061 34.933 1067.21 -10.0198 1034.01 0.652832M1770 5.5686C1761.38 7.95117 1759.01 16.0963 1759 24L1759 77L1759 303L1759 1137L1759 1334C1759 1351.64 1751.75 1396.76 1783 1388.57C1789.35 1386.91 1794.26 1380.38 1794.9 1374C1796.75 1355.38 1795 1335.72 1795 1317L1795 1090L1795 257L1795 60C1795 41.2001 1802.53 -3.42041 1770 5.5686z"/>
<path style="fill:#808080; stroke:none;" d="M1057 6L1058 7L1057 6z"/>
<path style="fill:#ffffff; stroke:none;" d="M966.004 102.754C946.695 108.841 953 141.625 953 157L953 327L953 1045L953 1237C953 1253.89 946.961 1298.32 977 1290.44C997.539 1285.05 990 1244.95 990 1229L990 1034L990 318L990 148C990 132.175 994.017 93.9232 966.004 102.754z"/>
<path style="fill:#808080; stroke:none;" d="M959 106L960 107L959 106M1480 134L1481 135L1480 134z"/>
<path style="fill:#ffffff; stroke:none;" d="M1481 134.444C1460.51 137.98 1467 169.041 1467 184L1467 344L1467 1024L1467 1207C1467 1222.69 1460.27 1262.85 1486.96 1259.76C1510.49 1257.03 1503 1219.28 1503 1203L1503 1019L1503 339L1503 180C1503 163 1508.37 129.72 1481 134.444M1113 213.75C1094.36 219.341 1100 243.807 1100 259L1100 396L1100 979L1100 1136C1100 1151.87 1095.45 1185.41 1122 1179.32C1142.13 1174.7 1136 1144.26 1136 1129L1136 971L1136 388L1136 249C1136 234.789 1136.08 206.827 1113 213.75M2214 224.441C2194.58 227.505 2200 252.659 2200 267L2200 400L2200 972L2200 1126C2200 1140.63 2195.06 1172.85 2219.42 1169.54C2241.45 1166.55 2236 1136.57 2236 1121L2236 967L2236 396L2236 262C2236 246.218 2237.54 220.725 2214 224.441z"/>
<path style="fill:#808080; stroke:none;" d="M1135 228L1136 229L1135 228z"/>
<path style="fill:#ffffff; stroke:none;" d="M1700 267.533C1682.31 271.834 1687 298.647 1687 312L1687 453L1687 972L1687 1096C1687 1110.25 1690.21 1131.05 1710 1126.61C1728.94 1122.35 1724 1095.21 1724 1081L1724 940L1724 422L1724 299C1724 282.829 1722.27 262.119 1700 267.533M1187 298.479C1169.49 302.038 1173 321.588 1173 335L1173 447L1173 929L1173 1059C1173 1071.92 1171.11 1098.05 1192 1095.44C1213.19 1092.79 1209 1069.41 1209 1054L1209 924L1209 442L1209 328C1209 313.611 1207.14 294.385 1187 298.479M1409.71 308.848C1390.89 313.194 1394 330.624 1394 346L1394 454L1394 923L1394 1050C1394 1064.46 1393.21 1087.84 1415 1084.33C1432.95 1081.44 1430 1062.46 1430 1049L1430 940L1430 469L1430 342C1430 329.235 1430.5 304.048 1409.71 308.848z"/>
<path style="fill:#808080; stroke:none;" d="M1411 308L1412 309L1411 308z"/>
<path style="fill:#ffffff; stroke:none;" d="M1629 308.818C1610.07 312.003 1614 330.31 1614 345L1614 453L1614 922L1614 1048C1614 1062.24 1610.83 1087.15 1633 1084.52C1650.83 1082.41 1648 1063.05 1648 1050L1648 940L1648 470L1648 344C1648 331.063 1650.11 305.265 1629 308.818z"/>
<path style="fill:#808080; stroke:none;" d="M1638 310L1639 311L1638 310z"/>
<path style="fill:#ffffff; stroke:none;" d="M2285 320.728C2269.93 326.142 2274 348.69 2274 361L2274 485L2274 939L2274 1017C2274 1030.06 2272.57 1044.04 2274.19 1057C2275.75 1069.54 2288.17 1076.35 2300 1072.3C2314.82 1067.22 2311 1044.01 2311 1032L2311 908L2311 454C2311 415.637 2313.59 376.259 2310.91 338C2309.97 324.525 2298.34 315.934 2285 320.728M1553 336.653C1538.51 341.225 1543 363.535 1543 375L1543 493L1543 929C1543 966.636 1539.11 1006.6 1543.11 1044C1544.19 1054.15 1555.64 1059.92 1565 1057.53C1582.06 1053.15 1579 1032.24 1579 1019L1579 900L1579 464L1579 389C1579 376.999 1580.5 363.878 1578.79 352C1576.96 339.34 1565.03 332.857 1553 336.653M1846 349.558C1830.65 353.585 1834 374.021 1834 386L1834 500L1834 920C1834 954.632 1833.16 989.38 1834.01 1024C1834.31 1035.93 1842.7 1047.5 1856 1044.61C1872.94 1040.93 1871 1021.16 1871 1008L1871 893L1871 473C1871 438.155 1874.13 401.678 1870.9 367C1869.66 353.737 1859.03 346.138 1846 349.558M526 367.558C510.199 371.702 514 390.625 514 403L514 510L514 908L514 979C514 990.094 512.114 1003.13 514.344 1014C516.267 1023.38 526.453 1027.19 535 1025.53C551.8 1022.28 549 1003.81 549 991L549 883L549 485C549 451.506 553.015 415.205 548.815 382C547.442 371.149 536.281 364.861 526 367.558M2800 413.572C2786.71 417.327 2788 433.254 2788 444L2788 537L2788 881C2788 907.814 2784.39 937.483 2788.21 964C2789.85 975.381 2800.5 983.671 2812 980.501C2826.72 976.443 2824 960.789 2824 949L2824 856L2824 513L2824 452C2824 443.166 2826.01 431.468 2823.35 423C2820.34 413.44 2808.69 411.118 2800 413.572M2141 436.649C2127.21 440.815 2129 454.606 2129 466L2129 550L2129 865L2129 919C2129 927.13 2127.45 937.092 2129.42 945C2131.83 954.66 2143.09 958.633 2152 956.467C2165.73 953.131 2165 939.084 2165 928L2165 842L2165 527L2165 475C2165 466.845 2166.52 456.941 2164.58 449C2162.11 438.9 2150.61 433.747 2141 436.649M1331.01 447.532C1317.62 450.803 1319 464.307 1319 475L1319 556L1319 858C1319 881.812 1315 909.604 1319.26 933C1320.94 942.19 1331 948.351 1340 946.659C1354.43 943.947 1355 930.761 1355 919L1355 837L1355 535L1355 485C1355 476.754 1356.4 467.02 1354.29 459C1351.61 448.788 1340.53 445.208 1331.01 447.532M1918 452.533C1906.62 455.279 1904 465.832 1904 476L1904 545L1904 842C1904 868.489 1900.43 897.814 1904.3 924C1905.73 933.68 1914.27 943.359 1925 941.603C1939.23 939.275 1941 927.034 1941 915L1941 835L1941 539C1941 515.827 1944.29 489.862 1940.56 467.001C1938.77 456.026 1928.78 449.931 1918 452.533M2361 452.533C2349.75 455.267 2348.02 466.162 2348 476L2348 545L2348 841C2348 867.952 2345.57 896.183 2348.17 923C2349.11 932.75 2356.55 943.372 2367.83 941.721C2381.6 939.707 2384 927.599 2384 916L2384 835L2384 539L2384 490C2384 482.031 2385.27 472.792 2383.47 465C2381.18 455.089 2370.48 450.23 2361 452.533z"/>
<path style="fill:#808080; stroke:none;" d="M2375 454L2376 455L2375 454M1910 456L1911 457L1910 456z"/>
<path style="fill:#ffffff; stroke:none;" d="M451 457.554C437.776 460.862 438 472.891 438 484L438 561L438 851C438 873.624 434.348 899.749 438.329 922C440.097 931.876 449.386 937.303 459 935.532C472.142 933.111 473.839 922.251 473.768 911C473.6 884.594 473.599 858.174 473.768 831.768C474.386 735.349 475.419 638.636 473.755 542.232C473.367 519.768 478.09 492.906 473.584 470.96C471.564 461.123 460.464 455.187 451 457.554z"/>
<path style="fill:#808080; stroke:none;" d="M473 475L474 476L473 475z"/>
<path style="fill:#ffffff; stroke:none;" d="M1997 475.97C1989.42 476.658 1981.93 481.098 1980.34 489.039C1978.65 497.49 1980 507.394 1980 516L1980 571L1980 838L1980 884C1980 890.709 1978.54 899.447 1980.85 905.83C1984.19 915.066 1993.05 917.849 2002 916.892C2013.58 915.653 2016 904.562 2016 895L2016 822L2016 555L2016 510C2016 503.084 2017.26 494.734 2015.58 488.001C2013.6 480.052 2004.87 475.255 1997 475.97z"/>
<path style="fill:#808080; stroke:none;" d="M473 477L474 478L473 477M2010 480L2011 481L2010 480M473 481L474 482L473 481M473 483L474 484L473 483M473 485L474 486L473 485M473 489L474 490L473 489M473 491L474 492L473 491M473 493L474 494L473 493M473 497L474 498L473 497M473 499L474 500L473 499M473 501L474 502L473 501z"/>
<path style="fill:#ffffff; stroke:none;" d="M913 696C919.539 683.748 915 659.834 915 646L915 561C915 547.387 916.728 532.472 914.79 519C912.79 505.095 895.206 496.367 883.978 506.975C877.564 513.035 879 521.992 879 530L879 584L879 806L879 865C879 874.926 878.72 884.41 889.015 889.467C900.896 895.304 913.747 885.135 914.896 873C918.918 830.5 915 785.711 915 743L915 710C915 705.284 915.945 699.888 913 696z"/>
<path style="fill:#808080; stroke:none;" d="M473 505L474 506L473 505z"/>
<path style="fill:#ffffff; stroke:none;" d="M596.424 505.753C585.115 509.757 584 519.48 584 530L584 581L584 814C584 832.7 580.32 855.789 584.529 874C587.01 884.73 597.567 890.194 607.996 887.442C617.365 884.97 620.58 875.689 620.961 867C621.892 845.754 621 824.269 621 803L621 570C621 553.512 624.29 532.92 619.62 517C616.939 507.857 605.299 502.611 596.424 505.753M817.424 505.754C807.17 509.435 805.048 519.227 805.001 529C804.903 549.332 805 569.667 805 590L805 822C805 838.652 801.925 858.831 806.185 875C809.013 885.733 819.718 890.421 830 887.196C840.112 884.024 840.999 873.98 841 865L841 802L841 570C841 553.743 844.548 532.703 840.235 517.015C837.669 507.679 826.483 502.502 817.424 505.754z"/>
<path style="fill:#808080; stroke:none;" d="M473 507L474 508L473 507M611 507L612 508L611 507M613 508L614 509L613 508M473 509L474 510L473 509M881 510L882 511L881 510M473 513L474 514L473 513z"/>
<path style="fill:#ffffff; stroke:none;" d="M1260 513.699C1249.32 517.201 1249 526.511 1249 536L1249 595L1249 817C1249 832.812 1245.36 853.762 1249.57 868.999C1252.14 878.324 1263.37 881.811 1272 879.431C1279.56 877.345 1284.42 869.523 1284.95 862C1286.42 840.888 1285 819.168 1285 798L1285 575C1285 560.189 1288.51 540.162 1284.09 526C1280.93 515.838 1270.26 510.334 1260 513.699M2582 513.558C2573.03 515.912 2569.23 524.451 2569.01 533C2568.5 553.639 2569 574.354 2569 595L2569 817C2569 835.284 2560.46 887.377 2593 879.467C2601.94 877.293 2605.59 868.4 2605.96 860C2606.87 839.419 2606 818.603 2606 798L2606 576C2606 560.544 2609.22 540.901 2604.9 526C2601.96 515.901 2592.04 510.923 2582 513.558z"/>
<path style="fill:#808080; stroke:none;" d="M473 515L474 516L473 515z"/>
<path style="fill:#ffffff; stroke:none;" d="M2435 516.572C2426.4 519 2423.05 527.882 2423 536C2422.87 555.998 2423 576.001 2423 596L2423 815C2423 829.745 2419.42 849.898 2423.75 864C2426.51 872.963 2435.29 879.705 2445 877.61C2456.3 875.169 2458 865.824 2458 856L2458 797L2458 578C2458 562.581 2462.01 540.696 2457.35 526.004C2454.51 517.065 2443.23 514.25 2435 516.572z"/>
<path style="fill:#808080; stroke:none;" d="M473 517L474 518L473 517M2451 518L2452 519L2451 518M473 521L474 522L473 521M473 523L474 524L473 523M473 525L474 526L473 525M473 529L474 530L473 529M473 531L474 532L473 531M473 533L474 534L473 533z"/>
<path style="fill:#ffffff; stroke:none;" d="M380 537.533C359.251 542.544 367 583.135 367 599L367 794C367 809.143 363.446 829.51 367.989 844C370.559 852.197 379.281 858.375 388 856.467C393.945 855.166 400.156 850.889 402.272 844.999C404.268 839.445 403 831.834 403 826L403 786L403 592C403 574.486 410.596 530.145 380 537.533z"/>
<path style="fill:#808080; stroke:none;" d="M473 537L474 538L473 537M473 539L474 540L473 539M473 541L474 542L473 541z"/>
<path style="fill:#ffffff; stroke:none;" d="M744 542.468C723.483 546.413 731 585.66 731 601L731 789C731 804.527 727.865 823.91 731.533 839C733.301 846.274 741.371 852.28 749 851.52C755.945 850.828 763.091 845.712 765.196 839C770.034 823.575 766 801.154 766 785L766 596C766 578.944 773.238 536.847 744 542.468M2878 542.468C2856.33 546.625 2864 584.903 2864 601L2864 789C2864 804.003 2860.31 824.665 2864.8 839C2867.02 846.082 2875.38 852.269 2883 851.52C2908.99 848.965 2900 803.056 2900 785L2900 596C2900 578.821 2907.33 536.841 2878 542.468z"/>
<path style="fill:#808080; stroke:none;" d="M757 544L758 545L757 544M473 545L474 546L473 545M473 547L474 548L473 547M473 549L474 550L473 549M2866 550L2867 551L2866 550M473 553L474 554L473 553M473 555L474 556L473 555M473 557L474 558L473 557M473 561L474 562L473 561M473 563L474 564L473 563M473 565L474 566L473 565M473 569L474 570L473 569M473 571L474 572L473 571z"/>
<path style="fill:#ffffff; stroke:none;" d="M2717 696C2712.55 704.332 2715 717.691 2715 727L2715 781C2715 789.522 2713.5 799.675 2715.39 808C2718.39 821.145 2735.74 826.458 2745.62 817.461C2756.33 807.707 2751 780.31 2751 767L2751 627C2751 613.169 2757.42 580.318 2741.98 573.279C2731.86 568.663 2719.1 573.269 2715.75 584C2713.25 592.011 2715 602.657 2715 611L2715 668C2715 675.625 2712.3 689.791 2717 696z"/>
<path style="fill:#808080; stroke:none;" d="M473 573L474 574L473 573z"/>
<path style="fill:#ffffff; stroke:none;" d="M2065 574.768C2046.29 581.065 2053 614.785 2053 630L2053 780C2053 795.805 2052.1 827.058 2078 818.297C2095.91 812.24 2089 777.882 2089 763L2089 614C2089 598.201 2091.69 565.787 2065 574.768z"/>
<path style="fill:#808080; stroke:none;" d="M2077 574L2078 575L2077 574z"/>
<path style="fill:#ffffff; stroke:none;" d="M2506 574.819C2488.07 581.301 2495 614.917 2495 630L2495 779C2495 794.817 2492.06 825.576 2518 818.431C2536.81 813.251 2530 777.552 2530 763L2530 613C2530 598.111 2531.55 565.581 2506 574.819z"/>
<path style="fill:#808080; stroke:none;" d="M473 577L474 578L473 577z"/>
<path style="fill:#ffffff; stroke:none;" d="M671.089 577.557C653.296 582.487 660 617.276 660 631L660 777C660 791.933 657.203 822.324 682 816.287C702.534 811.288 696 778.449 696 763L696 616C696 599.145 697.354 570.28 671.089 577.557z"/>
<path style="fill:#808080; stroke:none;" d="M473 579L474 580L473 579M473 581L474 582L473 581M2716 582L2717 583L2716 582M473 585L474 586L473 585M473 587L474 588L473 587M473 589L474 590L473 589z"/>
<path style="fill:#ffffff; stroke:none;" d="M3022 590.638C3004.65 595.652 3009.2 619.811 3009.2 633.6L3009.2 766.4C3009.2 780.779 3008.2 808.084 3031 803.086C3051.24 798.647 3046 771.616 3046 756L3046 624C3046 608.4 3044.97 583.997 3022 590.638z"/>
<path style="fill:#808080; stroke:none;" d="M3019 591L3020 592L3019 591z"/>
<path style="fill:#ffffff; stroke:none;" d="M231.015 593.532C213.327 597.852 219 626.663 219 640L219 767C219 781.397 219.178 805.357 241 800.61C260.307 796.409 255 768.337 255 754L255 627C255 610.598 254.701 587.747 231.015 593.532z"/>
<path style="fill:#808080; stroke:none;" d="M473 593L474 594L473 593M473 595L474 596L473 595M473 597L474 598L473 597M250 598L251 599L250 598M473 601L474 602L473 601M473 603L474 604L473 603M473 605L474 606L473 605M473 609L474 610L473 609M3009 609L3010 610L3009 609M473 611L474 612L473 611M473 613L474 614L473 613z"/>
<path style="fill:#ffffff; stroke:none;" d="M2655 613.613C2637.14 617.977 2640 635.673 2640 650C2640 687.259 2637.04 725.877 2640.09 763C2640.96 773.488 2651.4 782.157 2662 779.443C2678.35 775.256 2676 757.125 2676 744C2676 707.974 2676.42 672.036 2676 636C2675.86 624.303 2669.54 610.062 2655 613.613M2969 696C2972.05 690.288 2971 683.34 2971 677C2971 662.188 2975 640.518 2969.96 626.576C2965.59 614.476 2951.86 609.145 2941.02 617.43C2931.33 624.83 2935 642.16 2935 653L2935 745C2935 756.924 2931.93 772.042 2945 778.231C2955.51 783.208 2966.27 776.414 2969.96 766.424C2974.88 753.107 2971 732.178 2971 718C2971 711.577 2973 701.274 2969 696z"/>
<path style="fill:#808080; stroke:none;" d="M3009 613L3010 614L3009 613M473 617L474 618L473 617M3009 617L3010 618L3009 617M473 619L474 620L473 619M473 621L474 622L473 621M3009 621L3010 622L3009 621M473 625L474 626L473 625M3009 625L3010 626L3009 625M473 627L474 628L473 627z"/>
<path style="fill:#ffffff; stroke:none;" d="M3098 627.441C3083.43 629.74 3083 643.093 3083 655C3083 685.791 3079.88 718.397 3083.17 749C3084.27 759.171 3093.09 768.234 3104 766.481C3116.91 764.408 3120 750.97 3120 740C3120 709.023 3122.78 676.833 3119.9 646C3118.78 634.042 3110.38 625.486 3098 627.441M159 629.494C145.8 631.874 144 642.723 144 654L144 719C144 729.146 142.279 741.106 144.684 751C146.927 760.223 156.09 764.617 165 763.227C179.425 760.977 179 747.366 179 736C179 706.153 183.431 672.45 178.786 643C177.404 634.237 167.584 627.946 159 629.494M307 629.483C292.085 632.36 293 644.953 293 657L293 721C293 730.741 291.209 742.494 293.394 752C295.364 760.57 304.876 764.728 313 763.366C326.545 761.094 328 749.418 328 738L328 676C328 665.7 329.456 654.153 327.671 644C326.025 634.635 316.507 627.649 307 629.483z"/>
<path style="fill:#808080; stroke:none;" d="M473 629L474 630L473 629M3009 629L3010 630L3009 629M151 632L152 633L151 632M299 632L300 633L299 632M473 633L474 634L473 633M3009 633L3010 634L3009 633M322 634L323 635L322 634M473 635L474 636L473 635M3085 635L3086 636L3085 635M473 637L474 638L473 637M3009 637L3010 638L3009 637M473 641L474 642L473 641M3009 641L3010 642L3009 641M473 643L474 644L473 643M473 645L474 646L473 645M3009 645L3010 646L3009 645M473 649L474 650L473 649M3009 649L3010 650L3009 649M473 651L474 652L473 651M473 653L474 654L473 653M3009 653L3010 654L3009 653z"/>
<path style="fill:#ffffff; stroke:none;" d="M3170.09 654.558C3163.01 656.551 3159.01 664.173 3158.18 671C3157.15 679.551 3158.81 688.103 3158.81 696.576C3158.81 706.506 3156.07 717.263 3159.36 727C3162.32 735.747 3171.66 742.032 3181 739.502C3186.49 738.013 3191.85 733.576 3193.43 728C3195.23 721.623 3194 713.584 3194 707C3194 689.282 3201.22 645.79 3170.09 654.558M3243 654.703C3236.89 656.779 3232.88 662.776 3232.17 669C3231.12 678.302 3232.76 687.727 3232.54 697C3232.33 706.462 3230.1 717.755 3232.79 726.996C3235.48 736.249 3245.63 742.166 3255 739.246C3265.94 735.836 3264 726.379 3264 717L3264 678C3264 672.782 3265.42 665.054 3263.4 660.174C3260.58 653.387 3249 652.663 3243 654.703M84 657.653C77.7754 659.608 73.9638 665.768 73.1852 672C72.1475 680.306 73.7337 688.722 73.5448 697C73.3405 705.95 71.2604 716.32 74.2492 725C77.4539 734.307 87.5387 739.502 97 736.297C103.204 734.195 107.472 728.271 108.556 722C110.081 713.188 108.592 703.878 108.71 695C108.83 685.985 111.008 674.486 107.181 666.001C103.381 657.574 92.3482 655.031 84 657.653z"/>
<path style="fill:#808080; stroke:none;" d="M473 657L474 658L473 657M3009 657L3010 658L3009 657z"/>
<path style="fill:#ffffff; stroke:none;" d="M10.0008 659.569C-0.660419 662.514 0 673.128 0 682C0 698.974 -7.64553 741.569 21.9853 733.387C29.9912 731.176 32.8176 723.613 33.6296 716.089C35.4977 698.783 39.6761 651.369 10.0008 659.569z"/>
<path style="fill:#808080; stroke:none;" d="M473 659L474 660L473 659M473 661L474 662L473 661M3009 661L3010 662L3009 661M2 664L3 665L2 664M473 665L474 666L473 665M3009 665L3010 666L3009 665M473 667L474 668L473 667M0 668L1 669L0 668M473 669L474 670L473 669M3009 669L3010 670L3009 669M473 673L474 674L473 673M3009 673L3010 674L3009 673M473 675L474 676L473 675M473 677L474 678L473 677M3009 677L3010 678L3009 677M473 681L474 682L473 681M3009 681L3010 682L3009 681M473 683L474 684L473 683M473 685L474 686L473 685M3009 685L3010 686L3009 685M473 689L474 690L473 689M3009 689L3010 690L3009 689M473 691L474 692L473 691M2716 696L2717 697L2716 696M1467 697L1468 698L1467 697M1870 698L1871 699L1870 698M2423 698L2424 699L2423 698M473 701L474 702L473 701M3009 701L3010 702L3009 701M473 705L474 706L473 705M3009 705L3010 706L3009 705M473 707L474 708L473 707M473 709L474 710L473 709M3009 709L3010 710L3009 709M473 713L474 714L473 713M3009 713L3010 714L3009 713M473 715L474 716L473 715M473 717L474 718L473 717M3009 717L3010 718L3009 717M473 721L474 722L473 721M3009 721L3010 722L3009 721M473 723L474 724L473 723M473 725L474 726L473 725M3009 725L3010 726L3009 725M473 729L474 730L473 729M3009 729L3010 730L3009 729M473 731L474 732L473 731M473 733L474 734L473 733M3009 733L3010 734L3009 733M473 737L474 738L473 737M3009 737L3010 738L3009 737M473 739L474 740L473 739M473 741L474 742L473 741M3009 741L3010 742L3009 741M473 745L474 746L473 745M3009 745L3010 746L3009 745M473 747L474 748L473 747M473 749L474 750L473 749M3009 749L3010 750L3009 749M473 753L474 754L473 753M3009 753L3010 754L3009 753M473 755L474 756L473 755M473 757L474 758L473 757M3009 757L3010 758L3009 757M473 761L474 762L473 761M3009 761L3010 762L3009 761M473 763L474 764L473 763M473 765L474 766L473 765M3009 765L3010 766L3009 765M3095 765L3096 766L3095 765M473 769L474 770L473 769M3009 769L3010 770L3009 769M473 771L474 772L473 771M473 773L474 774L473 773M3009 773L3010 774L3009 773M2962 776L2963 777L2962 776M473 777L474 778L473 777M3009 777L3010 778L3009 777M473 779L474 780L473 779M2955 779L2956 780L2955 779M473 781L474 782L473 781M3009 781L3010 782L3009 781M473 785L474 786L473 785M3009 785L3010 786L3009 785M254 786L255 787L254 786M473 787L474 788L473 787M473 789L474 790L473 789M473 793L474 794L473 793M473 795L474 796L473 795M473 797L474 798L473 797M473 801L474 802L473 801M473 803L474 804L473 803M473 805L474 806L473 805M473 809L474 810L473 809M2528 809L2529 810L2528 809M473 811L474 812L473 811M473 813L474 814L473 813M2719 815L2720 816L2719 815M676 816L676 817L679 817L676 816M473 817L474 818L473 817M473 819L474 820L473 819M473 821L474 822L473 821M473 825L474 826L473 825M473 827L474 828L473 827M473 829L474 830L473 829M473 833L474 834L473 833M473 835L474 836L473 835M473 837L474 838L473 837M2864 838L2865 839L2864 838M473 841L474 842L473 841M367 842L368 843L367 842M473 843L474 844L473 843M473 845L474 846L473 845M757 848L758 849L757 848M473 849L474 850L473 849M473 851L474 852L473 851M396 852L397 853L396 852M473 853L474 854L473 853M391 855L392 856L391 855M473 857L474 858L473 857M473 859L474 860L473 859M473 861L474 862L473 861M473 865L474 866L473 865M2457 866L2458 867L2457 866M473 867L474 868L473 867M473 869L474 870L473 869M2571 870L2572 871L2571 870M473 873L474 874L473 873M1279 874L1280 875L1279 874M473 875L474 876L473 875M1277 876L1278 877L1277 876M2435 876L2436 877L2435 876M473 877L474 878L473 877M473 881L474 882L473 881M473 883L474 884L473 883M614 883L615 884L614 883M473 885L474 886L473 885M473 889L474 890L473 889M473 891L474 892L473 891M473 893L474 894L473 893M473 897L474 898L473 897M473 899L474 900L473 899M473 901L474 902L473 901M473 905L474 906L473 905M473 907L474 908L473 907M473 909L474 910L473 909M2012 910L2013 911L2012 910M473 913L474 914L473 913M473 915L474 916L473 915M473 917L474 918L473 917M1918 940L1919 941L1918 940M1348 942L1349 943L1348 942M2797 978L2798 979L2797 978M1868 1034L1869 1035L1868 1034M2310 1056L2311 1057L2310 1056M2308 1064L2309 1065L2308 1064M1194 1094L1195 1095L1194 1094M2231 1162L2232 1163L2231 1162M1135 1164L1136 1165L1135 1164M2207 1166L2208 1167L2207 1166M2218 1169L2219 1170L2218 1169M1490 1258L1491 1259L1490 1258z"/>
</svg>
